<svg width="19" height="17" viewBox="0 0 19 17" fill="none" xmlns="http://www.w3.org/2000/svg">
<path d="M18.5336 4.11254L15.9851 6.66099C15.9167 9.17974 14.9553 11.6362 13.3235 13.4398C11.4123 15.5521 8.77383 16.6686 5.6932 16.6686C2.69778 16.6686 1.15374 15.1591 1.08947 15.0948C1.00168 15.007 0.939348 14.897 0.909116 14.7766C0.878885 14.6561 0.881887 14.5298 0.917802 14.4109C0.953717 14.2921 1.0212 14.1852 1.11306 14.1016C1.20493 14.0181 1.31773 13.961 1.43946 13.9365C2.17201 13.7882 3.99038 13.2102 4.76416 12.1686C3.93454 11.6902 3.19785 11.0663 2.58936 10.3268C0.436514 7.71261 0.482137 4.42733 0.899527 2.13163C0.923092 2.00204 0.983444 1.88197 1.07338 1.78574C1.16332 1.68951 1.27904 1.62119 1.40674 1.58893C1.53445 1.55667 1.66873 1.56184 1.79358 1.60381C1.91843 1.64578 2.02857 1.72278 2.11085 1.82564C2.13444 1.85496 4.39038 4.61879 7.75237 5.52173V5.00023C7.75961 3.90116 8.20299 2.84994 8.98505 2.07768C9.76711 1.30542 10.8238 0.875316 11.9229 0.881933C12.6368 0.89182 13.336 1.08671 13.9521 1.44757C14.5682 1.80842 15.0802 2.32291 15.438 2.94077L18.0482 2.94081C18.184 2.94081 18.3167 2.98107 18.4296 3.05648C18.5424 3.1319 18.6304 3.2391 18.6824 3.36452C18.7343 3.48994 18.7479 3.62795 18.7214 3.76109C18.695 3.89424 18.6296 4.01654 18.5336 4.11254Z" fill="#FFCB05"/>
</svg>
