<svg width="10" height="20" viewBox="0 0 10 20" fill="none" xmlns="http://www.w3.org/2000/svg">
<path d="M9.9836 0.483437V3.64894C9.9836 3.84591 9.82413 4.00068 9.63187 4.00068H7.56843C7.15576 4.00068 7.10885 4.3102 7.10885 4.54003V5.60632C7.10885 5.88247 7.3327 6.10632 7.60885 6.10632H9.24734C9.4396 6.10632 9.59908 6.26109 9.59908 6.45806V9.71269C9.59908 9.90966 9.4396 10.0644 9.24734 10.0644H7.60885C7.3327 10.0644 7.10885 10.2883 7.10885 10.5644V18.9935C7.10885 19.1858 6.94937 19.3452 6.75711 19.3452H2.92098C2.72401 19.3452 2.56925 19.1858 2.56925 18.9935V10.5644C2.56925 10.2883 2.34539 10.0644 2.06925 10.0644H0.524587C0.332324 10.0644 0.172852 9.90966 0.172852 9.71269V6.45335C0.172852 6.26109 0.332324 6.10161 0.524587 6.10161H2.06925C2.34539 6.10161 2.56925 5.87776 2.56925 5.60161V4.34299C2.56925 2.30299 3.67602 0.122282 6.7899 0.122282L9.63187 0.131642C9.82884 0.136352 9.9836 0.291174 9.9836 0.483437Z" fill="#FFCB05"/>
</svg>
