<svg width="17" height="14" viewBox="0 0 17 14" fill="none" xmlns="http://www.w3.org/2000/svg">
<path d="M14.58 0.413544H1.77364C0.893208 0.413544 0.180856 1.1339 0.180856 2.01434L0.172852 11.6191C0.172852 12.4995 0.893208 13.2199 1.77364 13.2199H14.58C15.4604 13.2199 16.1808 12.4995 16.1808 11.6191V2.01434C16.1808 1.1339 15.4604 0.413544 14.58 0.413544ZM14.2598 3.81523L8.60102 7.35298C8.3449 7.51306 8.00873 7.51306 7.7526 7.35298L2.0938 3.81523C1.8937 3.68716 1.77364 3.47106 1.77364 3.23894C1.77364 2.70268 2.35793 2.38252 2.81416 2.66266L8.17681 6.01632L13.5395 2.66266C13.9957 2.38252 14.58 2.70268 14.58 3.23894C14.58 3.47106 14.4599 3.68716 14.2598 3.81523Z" fill="#FFCB05"/>
</svg>
